<svg width="219" height="16" viewBox="0 0 219 16" fill="none" xmlns="http://www.w3.org/2000/svg">
<path d="M211.603 15.6052C210.283 15.6052 209.083 15.2852 208.003 14.6452C206.936 14.0052 206.09 13.1185 205.463 11.9852C204.85 10.8518 204.543 9.57849 204.543 8.16515C204.543 6.79182 204.843 5.57182 205.443 4.50515C206.056 3.43849 206.87 2.61182 207.883 2.02515C208.896 1.42515 209.976 1.12515 211.123 1.12515C211.816 1.12515 212.503 1.23182 213.183 1.44515C213.863 1.65849 214.47 1.94515 215.003 2.30515C215.31 2.55849 215.503 2.72515 215.583 2.80515C215.89 3.08515 216.13 3.38515 216.303 3.70515C216.57 4.19849 216.703 4.67849 216.703 5.14515C216.703 5.58515 216.57 5.95849 216.303 6.26515C216.05 6.57182 215.663 6.72515 215.143 6.72515C214.73 6.72515 214.37 6.61182 214.063 6.38515C213.77 6.14515 213.503 5.67182 213.263 4.96515C213.143 4.25849 212.87 3.69849 212.443 3.28515C212.016 2.87182 211.463 2.66515 210.783 2.66515C209.93 2.66515 209.236 3.03182 208.703 3.76515C208.183 4.48515 207.923 5.42515 207.923 6.58515C207.923 7.73182 208.11 8.84515 208.483 9.92515C208.856 10.9918 209.37 11.8652 210.023 12.5452C210.676 13.2252 211.41 13.5652 212.223 13.5652C212.903 13.5652 213.416 13.4318 213.763 13.1652C214.123 12.8852 214.303 12.5518 214.303 12.1652V11.6252C214.303 11.2252 214.27 10.9385 214.203 10.7652C214.15 10.5918 214.05 10.4718 213.903 10.4052C213.756 10.3252 213.49 10.2252 213.103 10.1052C212.93 10.0252 212.783 9.91182 212.663 9.76515C212.556 9.61849 212.503 9.46515 212.503 9.30515C212.503 9.06515 212.576 8.90515 212.723 8.82515C212.883 8.73182 213.163 8.67849 213.563 8.66515H214.823H217.223C217.61 8.67849 217.876 8.73182 218.023 8.82515C218.183 8.90515 218.263 9.06515 218.263 9.30515C218.263 9.55849 218.096 9.79182 217.763 10.0052C217.496 10.1385 217.31 10.2452 217.203 10.3252C217.11 10.3918 217.043 10.5252 217.003 10.7252C216.963 10.9118 216.943 11.2252 216.943 11.6652V12.3452C216.943 13.1585 216.656 13.8318 216.083 14.3652C215.883 14.5518 215.616 14.7318 215.283 14.9052C214.35 15.3718 213.123 15.6052 211.603 15.6052Z" fill="#E5E6E6"/>
<path d="M190.583 15.3852C190.223 15.3852 189.97 15.3385 189.823 15.2452C189.69 15.1518 189.623 15.0118 189.623 14.8252C189.623 14.5052 189.796 14.2785 190.143 14.1452C190.516 14.0385 190.77 13.9185 190.903 13.7852C191.05 13.6385 191.143 13.3852 191.183 13.0252C191.223 12.6652 191.243 12.0252 191.243 11.1052V4.72515C191.243 4.16515 191.223 3.75849 191.183 3.50515C191.143 3.25182 191.05 3.05849 190.903 2.92515C190.756 2.79182 190.516 2.67849 190.183 2.58515C189.81 2.45182 189.623 2.22515 189.623 1.90515C189.623 1.70515 189.69 1.56515 189.823 1.48515C189.956 1.39182 190.216 1.34515 190.603 1.34515L193.203 1.36515C193.59 1.36515 193.863 1.46515 194.023 1.66515L200.223 9.58515C200.343 9.73182 200.47 9.80515 200.603 9.80515C200.67 9.80515 200.73 9.77182 200.783 9.70515C200.836 9.63849 200.863 9.54515 200.863 9.42515V4.72515C200.863 4.16515 200.836 3.75849 200.783 3.50515C200.743 3.25182 200.65 3.06515 200.503 2.94515C200.356 2.81182 200.116 2.69182 199.783 2.58515C199.423 2.45182 199.243 2.22515 199.243 1.90515C199.243 1.70515 199.303 1.56515 199.423 1.48515C199.556 1.39182 199.816 1.34515 200.203 1.34515H202.943C203.303 1.34515 203.55 1.39182 203.683 1.48515C203.83 1.57849 203.903 1.71849 203.903 1.90515C203.903 2.22515 203.73 2.45182 203.383 2.58515C203.01 2.70515 202.75 2.83849 202.603 2.98515C202.47 3.11849 202.383 3.36515 202.343 3.72515C202.303 4.07182 202.283 4.70515 202.283 5.62515V14.7852C202.283 14.9852 202.23 15.1452 202.123 15.2652C202.016 15.3718 201.883 15.4252 201.723 15.4252C201.496 15.4252 201.283 15.3118 201.083 15.0852L193.183 5.42515C193.076 5.33182 192.983 5.28515 192.903 5.28515C192.756 5.28515 192.683 5.38515 192.683 5.58515V12.0052C192.683 12.5652 192.703 12.9718 192.743 13.2252C192.796 13.4785 192.896 13.6718 193.043 13.8052C193.19 13.9385 193.43 14.0518 193.763 14.1452C194.123 14.2785 194.303 14.5052 194.303 14.8252C194.303 15.0252 194.236 15.1718 194.103 15.2652C193.983 15.3452 193.73 15.3852 193.343 15.3852H190.583Z" fill="#E5E6E6"/>
<path d="M183.223 15.3652C182.823 15.3652 182.543 15.3252 182.383 15.2452C182.223 15.1518 182.143 14.9852 182.143 14.7452C182.143 14.4652 182.323 14.2185 182.683 14.0052C183.136 13.7652 183.423 13.5252 183.543 13.2852C183.676 13.0452 183.743 12.6452 183.743 12.0852V4.64517C183.743 4.08517 183.676 3.68517 183.543 3.44517C183.41 3.20517 183.116 2.96517 182.663 2.72517C182.303 2.51184 182.123 2.26517 182.123 1.98517C182.123 1.74517 182.203 1.58517 182.363 1.50517C182.523 1.41184 182.803 1.36517 183.203 1.36517H185.143H185.443H187.383C187.783 1.36517 188.056 1.41184 188.203 1.50517C188.363 1.58517 188.443 1.74517 188.443 1.98517C188.443 2.26517 188.263 2.51184 187.903 2.72517C187.45 2.96517 187.156 3.20517 187.023 3.44517C186.903 3.68517 186.843 4.08517 186.843 4.64517V12.0852C186.843 12.6452 186.91 13.0452 187.043 13.2852C187.176 13.5252 187.47 13.7652 187.923 14.0052C188.283 14.2185 188.463 14.4652 188.463 14.7452C188.463 14.9852 188.383 15.1518 188.223 15.2452C188.063 15.3252 187.783 15.3652 187.383 15.3652H185.443H185.143H183.223Z" fill="#E5E6E6"/>
<path d="M167.927 15.3852C167.567 15.3852 167.313 15.3385 167.167 15.2452C167.033 15.1518 166.967 15.0118 166.967 14.8252C166.967 14.5052 167.14 14.2785 167.487 14.1452C167.86 14.0385 168.113 13.9185 168.247 13.7852C168.393 13.6385 168.487 13.3852 168.527 13.0252C168.567 12.6652 168.587 12.0252 168.587 11.1052V4.72515C168.587 4.16515 168.567 3.75849 168.527 3.50515C168.487 3.25182 168.393 3.05849 168.247 2.92515C168.1 2.79182 167.86 2.67849 167.527 2.58515C167.153 2.45182 166.967 2.22515 166.967 1.90515C166.967 1.70515 167.033 1.56515 167.167 1.48515C167.3 1.39182 167.56 1.34515 167.947 1.34515L170.547 1.36515C170.933 1.36515 171.207 1.46515 171.367 1.66515L177.567 9.58515C177.687 9.73182 177.813 9.80515 177.947 9.80515C178.013 9.80515 178.073 9.77182 178.127 9.70515C178.18 9.63849 178.207 9.54515 178.207 9.42515V4.72515C178.207 4.16515 178.18 3.75849 178.127 3.50515C178.087 3.25182 177.993 3.06515 177.847 2.94515C177.7 2.81182 177.46 2.69182 177.127 2.58515C176.767 2.45182 176.587 2.22515 176.587 1.90515C176.587 1.70515 176.647 1.56515 176.767 1.48515C176.9 1.39182 177.16 1.34515 177.547 1.34515H180.287C180.647 1.34515 180.893 1.39182 181.027 1.48515C181.173 1.57849 181.247 1.71849 181.247 1.90515C181.247 2.22515 181.073 2.45182 180.727 2.58515C180.353 2.70515 180.093 2.83849 179.947 2.98515C179.813 3.11849 179.727 3.36515 179.687 3.72515C179.647 4.07182 179.627 4.70515 179.627 5.62515V14.7852C179.627 14.9852 179.573 15.1452 179.467 15.2652C179.36 15.3718 179.227 15.4252 179.067 15.4252C178.84 15.4252 178.627 15.3118 178.427 15.0852L170.527 5.42515C170.42 5.33182 170.327 5.28515 170.247 5.28515C170.1 5.28515 170.027 5.38515 170.027 5.58515V12.0052C170.027 12.5652 170.047 12.9718 170.087 13.2252C170.14 13.4785 170.24 13.6718 170.387 13.8052C170.533 13.9385 170.773 14.0518 171.107 14.1452C171.467 14.2785 171.647 14.5052 171.647 14.8252C171.647 15.0252 171.58 15.1718 171.447 15.2652C171.327 15.3452 171.073 15.3852 170.687 15.3852H167.927Z" fill="#E5E6E6"/>
<path d="M152.034 15.3852C151.474 15.3852 151.194 15.1852 151.194 14.7852C151.194 14.6385 151.261 14.5052 151.394 14.3852C151.541 14.2518 151.714 14.1452 151.914 14.0652C152.327 13.9585 152.627 13.8052 152.814 13.6052C153.001 13.4052 153.187 13.0585 153.374 12.5652L156.854 3.50517C156.894 3.38517 156.914 3.26517 156.914 3.14517C156.914 2.98517 156.874 2.84517 156.794 2.72517C156.727 2.60517 156.627 2.5185 156.494 2.46517C156.201 2.34517 156.054 2.14517 156.054 1.86517C156.054 1.7185 156.114 1.58517 156.234 1.46517C156.354 1.33183 156.567 1.26517 156.874 1.26517H158.394C159.141 1.26517 159.674 1.4185 159.994 1.72517C160.327 2.0185 160.594 2.41183 160.794 2.90517L161.934 5.82517C162.814 8.14517 163.714 10.4652 164.634 12.7852C164.767 13.1452 164.901 13.3985 165.034 13.5452C165.181 13.6918 165.427 13.8185 165.774 13.9252C165.934 14.0052 166.061 14.1052 166.154 14.2252C166.247 14.3318 166.294 14.4852 166.294 14.6852C166.294 14.9652 166.187 15.1518 165.974 15.2452C165.774 15.3385 165.541 15.3785 165.274 15.3652H161.714C161.087 15.3652 160.654 15.3318 160.414 15.2652C160.174 15.1985 160.054 15.0318 160.054 14.7652C160.054 14.6318 160.081 14.5318 160.134 14.4652C160.187 14.3852 160.274 14.3118 160.394 14.2452C160.687 14.1518 160.894 14.0518 161.014 13.9452C161.147 13.8252 161.214 13.6718 161.214 13.4852C161.214 13.3385 161.174 13.1452 161.094 12.9052L160.734 11.9252C160.667 11.7118 160.554 11.5452 160.394 11.4252C160.234 11.3052 160.054 11.2452 159.854 11.2452H156.174C155.881 11.2452 155.674 11.2785 155.554 11.3452C155.434 11.4118 155.327 11.5585 155.234 11.7852L154.894 12.7052C154.774 13.0385 154.714 13.3118 154.714 13.5252C154.714 13.7118 154.774 13.8585 154.894 13.9652C155.014 14.0718 155.207 14.1518 155.474 14.2052C155.874 14.3252 156.074 14.5252 156.074 14.8052C156.074 15.1918 155.761 15.3852 155.134 15.3852H152.034ZM159.354 9.84517C159.541 9.84517 159.687 9.80517 159.794 9.72517C159.914 9.63183 159.947 9.51183 159.894 9.36517L159.414 8.00517C158.974 6.7385 158.601 5.64517 158.294 4.72517C158.241 4.5385 158.161 4.44517 158.054 4.44517C157.961 4.44517 157.874 4.5385 157.794 4.72517L156.094 9.36517C156.027 9.5385 156.054 9.66517 156.174 9.74517C156.307 9.81183 156.481 9.84517 156.694 9.84517H159.354Z" fill="#E5E6E6"/>
<path d="M149.931 10.6851C150.357 10.6851 150.571 10.9385 150.571 11.4451C150.571 11.8985 150.431 12.6185 150.151 13.6051C149.924 14.4718 149.711 15.0518 149.511 15.3451C149.324 15.6251 149.097 15.7651 148.831 15.7651C148.657 15.7651 148.477 15.7185 148.291 15.6251C148.131 15.5451 147.957 15.4785 147.771 15.4251C147.597 15.3851 147.344 15.3651 147.011 15.3651H139.571C139.171 15.3651 138.891 15.3251 138.731 15.2451C138.571 15.1518 138.491 14.9851 138.491 14.7451C138.491 14.4651 138.671 14.2185 139.031 14.0051C139.484 13.7651 139.771 13.5251 139.891 13.2851C140.024 13.0451 140.091 12.6451 140.091 12.0851V4.64515C140.091 4.08515 140.024 3.68515 139.891 3.44515C139.757 3.20515 139.464 2.96515 139.011 2.72515C138.651 2.51182 138.471 2.26515 138.471 1.98515C138.471 1.78515 138.537 1.63182 138.671 1.52515C138.817 1.40515 139.071 1.34515 139.431 1.34515H140.051C140.344 1.34515 140.924 1.35182 141.791 1.36515C142.671 1.36515 144.211 1.36515 146.411 1.36515C146.757 1.36515 147.011 1.34515 147.171 1.30515C147.344 1.25182 147.517 1.18515 147.691 1.10515C147.877 1.01182 148.064 0.965149 148.251 0.965149C148.491 0.965149 148.704 1.11182 148.891 1.40515C149.077 1.68515 149.291 2.25848 149.531 3.12515C149.811 4.13848 149.951 4.86515 149.951 5.30515C149.951 5.57182 149.897 5.76515 149.791 5.88515C149.697 5.99182 149.544 6.04515 149.331 6.04515C149.144 6.04515 148.971 5.98515 148.811 5.86515C148.664 5.74515 148.537 5.57848 148.431 5.36515C148.097 4.49848 147.844 3.90515 147.671 3.58515C147.511 3.25182 147.324 3.03182 147.111 2.92515C146.897 2.80515 146.577 2.74515 146.151 2.74515H144.051C143.824 2.74515 143.651 2.76515 143.531 2.80515C143.411 2.84515 143.324 2.93848 143.271 3.08515C143.217 3.23182 143.191 3.46515 143.191 3.78515V6.62515C143.191 6.87848 143.217 7.06515 143.271 7.18515C143.324 7.30515 143.431 7.36515 143.591 7.36515H144.871C145.191 7.36515 145.411 7.30515 145.531 7.18515C145.651 7.05182 145.697 6.77848 145.671 6.36515C145.657 6.15182 145.704 5.97848 145.811 5.84515C145.931 5.71182 146.084 5.64515 146.271 5.64515C146.484 5.64515 146.644 5.71182 146.751 5.84515C146.857 5.96515 146.944 6.19182 147.011 6.52515C147.077 6.85848 147.131 7.36515 147.171 8.04515C147.197 8.57848 147.211 8.91182 147.211 9.04515C147.211 9.59182 147.157 9.96515 147.051 10.1651C146.944 10.3651 146.764 10.4651 146.511 10.4651C146.324 10.4651 146.171 10.4051 146.051 10.2851C145.944 10.1518 145.884 9.98515 145.871 9.78515C145.831 9.30515 145.744 8.99848 145.611 8.86515C145.477 8.73182 145.257 8.66515 144.951 8.66515H143.631C143.444 8.66515 143.324 8.72515 143.271 8.84515C143.217 8.95182 143.191 9.13182 143.191 9.38515V13.1051C143.191 13.4651 143.251 13.7051 143.371 13.8251C143.491 13.9318 143.731 13.9851 144.091 13.9851H146.951C147.337 13.9851 147.651 13.9051 147.891 13.7451C148.131 13.5851 148.337 13.3251 148.511 12.9651C148.684 12.5918 148.871 12.0652 149.071 11.3851C149.257 10.9185 149.544 10.6851 149.931 10.6851Z" fill="#E5E6E6"/>
<path d="M135.907 15.7652C135.721 15.7652 135.534 15.7185 135.347 15.6252C135.187 15.5452 135.007 15.4785 134.807 15.4252C134.621 15.3852 134.334 15.3652 133.947 15.3652H129.127H127.207C126.807 15.3652 126.527 15.3252 126.367 15.2452C126.207 15.1518 126.127 14.9852 126.127 14.7452C126.127 14.4652 126.307 14.2185 126.667 14.0052C127.121 13.7785 127.407 13.5452 127.527 13.3052C127.661 13.0518 127.727 12.6452 127.727 12.0852V4.64517C127.727 4.08517 127.661 3.68517 127.527 3.44517C127.394 3.20517 127.101 2.96517 126.647 2.72517C126.287 2.51184 126.107 2.26517 126.107 1.98517C126.107 1.74517 126.187 1.58517 126.347 1.50517C126.507 1.41184 126.787 1.36517 127.187 1.36517H131.467C131.947 1.36517 132.281 1.41184 132.467 1.50517C132.654 1.58517 132.747 1.74517 132.747 1.98517C132.747 2.14517 132.681 2.29184 132.547 2.42517C132.427 2.54517 132.281 2.64517 132.107 2.72517C131.574 2.95184 131.227 3.19184 131.067 3.44517C130.907 3.68517 130.827 4.08517 130.827 4.64517V12.9852C130.827 13.3718 130.894 13.6252 131.027 13.7452C131.174 13.8652 131.407 13.9252 131.727 13.9252H133.887C134.447 13.9252 134.881 13.7452 135.187 13.3852C135.507 13.0252 135.821 12.3585 136.127 11.3852C136.301 10.9185 136.581 10.6852 136.967 10.6852C137.194 10.6852 137.361 10.7585 137.467 10.9052C137.587 11.0385 137.647 11.2518 137.647 11.5452C137.647 11.9852 137.494 12.6852 137.187 13.6452C137.001 14.2452 136.834 14.6985 136.687 15.0052C136.554 15.2985 136.427 15.4985 136.307 15.6052C136.201 15.7118 136.067 15.7652 135.907 15.7652Z" fill="#E5E6E6"/>
<path d="M119.426 15.6052C118.173 15.6052 117.033 15.2918 116.006 14.6652C114.993 14.0385 114.193 13.1652 113.606 12.0452C113.033 10.9118 112.746 9.62515 112.746 8.18515C112.746 6.85182 113.026 5.65182 113.586 4.58515C114.159 3.50515 114.946 2.65849 115.946 2.04515C116.946 1.43182 118.059 1.12515 119.286 1.12515C119.939 1.12515 120.579 1.21849 121.206 1.40515C121.846 1.59182 122.426 1.85182 122.946 2.18515C123.213 2.35849 123.446 2.53849 123.646 2.72515C123.899 2.96515 124.139 3.25182 124.366 3.58515C124.686 4.07849 124.846 4.59848 124.846 5.14515C124.846 5.57182 124.713 5.93849 124.446 6.24515C124.193 6.55182 123.806 6.70515 123.286 6.70515C122.899 6.70515 122.559 6.59182 122.266 6.36515C121.973 6.12515 121.686 5.65849 121.406 4.96515C121.259 4.28515 120.979 3.73182 120.566 3.30515C120.153 2.87848 119.606 2.66515 118.926 2.66515C118.099 2.66515 117.426 3.02515 116.906 3.74515C116.386 4.45182 116.126 5.39849 116.126 6.58515C116.126 8.41182 116.493 9.92515 117.226 11.1252C117.959 12.3252 119.053 12.9252 120.506 12.9252C121.439 12.9252 122.206 12.7185 122.806 12.3052C123.406 11.8785 123.799 11.3385 123.986 10.6852C124.079 10.4985 124.246 10.4052 124.486 10.4052C124.646 10.4052 124.786 10.4652 124.906 10.5852C125.039 10.6918 125.099 10.8452 125.086 11.0452C125.046 11.7385 124.799 12.4385 124.346 13.1452C123.906 13.8518 123.266 14.4385 122.426 14.9052C121.586 15.3718 120.586 15.6052 119.426 15.6052Z" fill="#E5E6E6"/>
<path d="M100.061 15.6052C99.1411 15.6052 98.2744 15.4518 97.4611 15.1452C96.6477 14.8385 95.9944 14.4118 95.5011 13.8652C95.1944 13.5318 94.9677 13.1852 94.8211 12.8252C94.6744 12.4652 94.6011 12.0918 94.6011 11.7052C94.6011 11.3318 94.7011 11.0252 94.9011 10.7852C95.1011 10.5452 95.3744 10.4252 95.7211 10.4252C96.0411 10.4252 96.3277 10.5252 96.5811 10.7252C96.8344 10.9118 97.0011 11.2185 97.0811 11.6452C97.1877 12.4052 97.4744 12.9918 97.9411 13.4052C98.4077 13.8185 98.9944 14.0252 99.7011 14.0252C100.368 14.0252 100.901 13.8452 101.301 13.4852C101.714 13.1252 101.921 12.6318 101.921 12.0052C101.921 11.3385 101.681 10.7985 101.201 10.3852C100.734 9.95849 100.034 9.59849 99.1011 9.30515C97.6344 8.82515 96.5944 8.23849 95.9811 7.54515C95.3677 6.83849 95.0611 5.93182 95.0611 4.82515C95.0611 4.13182 95.2544 3.50515 95.6411 2.94515C96.0411 2.38515 96.6144 1.94515 97.3611 1.62515C98.1077 1.29182 98.9811 1.12515 99.9811 1.12515C100.834 1.12515 101.648 1.27182 102.421 1.56515C103.194 1.85849 103.814 2.27182 104.281 2.80515C104.534 3.05849 104.741 3.35849 104.901 3.70515C105.061 4.11849 105.141 4.51849 105.141 4.90515C105.141 5.23849 105.048 5.51849 104.861 5.74515C104.674 5.95849 104.414 6.06515 104.081 6.06515C103.388 6.06515 102.961 5.71849 102.801 5.02515C102.681 4.26515 102.401 3.68515 101.961 3.28515C101.534 2.87182 100.988 2.66515 100.321 2.66515C99.7477 2.66515 99.2677 2.81849 98.8811 3.12515C98.4944 3.43182 98.3011 3.83849 98.3011 4.34515C98.3011 4.93182 98.5144 5.41849 98.9411 5.80515C99.3811 6.19182 100.121 6.53182 101.161 6.82515C102.788 7.29182 103.941 7.89849 104.621 8.64515C105.314 9.37849 105.661 10.2852 105.661 11.3652C105.661 12.2052 105.428 12.9452 104.961 13.5852C104.508 14.2252 103.854 14.7252 103.001 15.0852C102.161 15.4318 101.181 15.6052 100.061 15.6052Z" fill="#E5E6E6"/>
<path d="M90.1322 6.76515C90.0122 6.76515 89.9056 6.72515 89.8122 6.64515C89.7189 6.55182 89.6722 6.44515 89.6722 6.32515C89.6722 6.15182 89.7722 6.02515 89.9722 5.94515C90.2922 5.81182 90.5589 5.63849 90.7722 5.42515C90.9989 5.21182 91.1122 4.98515 91.1122 4.74515C91.1122 4.63849 91.0789 4.55182 91.0122 4.48515C90.9589 4.41849 90.8522 4.36515 90.6922 4.32515C90.3722 4.25849 90.0989 4.10515 89.8722 3.86515C89.6589 3.62515 89.5522 3.27848 89.5522 2.82515C89.5522 2.34515 89.7256 1.94515 90.0722 1.62515C90.4189 1.29182 90.8522 1.12515 91.3722 1.12515C91.9589 1.12515 92.4122 1.31849 92.7322 1.70515C93.0522 2.07849 93.2122 2.61182 93.2122 3.30515C93.2122 4.02515 93.0389 4.64515 92.6922 5.16515C92.3589 5.68515 91.9456 6.08515 91.4522 6.36515C90.9722 6.63182 90.5322 6.76515 90.1322 6.76515Z" fill="#E5E6E6"/>
<path d="M86.4626 15.7651C86.3692 15.7651 86.1692 15.7318 85.8626 15.6651C84.9692 15.4651 84.1092 15.3651 83.2826 15.3651H76.9826C76.7026 15.3651 76.4892 15.3185 76.3426 15.2252C76.2092 15.1185 76.1426 14.9785 76.1426 14.8052C76.1426 14.6052 76.2626 14.3051 76.5026 13.9051L83.5826 3.40515C83.6892 3.23182 83.7426 3.09848 83.7426 3.00515C83.7426 2.83182 83.6026 2.74515 83.3226 2.74515H80.2426C79.9092 2.74515 79.6426 2.81182 79.4426 2.94515C79.2426 3.07848 79.0492 3.32515 78.8626 3.68515C78.6892 4.03182 78.4693 4.58515 78.2026 5.34515C78.0959 5.59848 77.9759 5.77848 77.8426 5.88515C77.7092 5.99182 77.5359 6.04515 77.3226 6.04515C76.8826 6.04515 76.6626 5.75182 76.6626 5.16515C76.6626 4.67182 76.8092 4.00515 77.1026 3.16515C77.3426 2.45848 77.5226 1.96515 77.6426 1.68515C77.7626 1.40515 77.8692 1.21848 77.9626 1.12515C78.0692 1.01848 78.2159 0.965149 78.4026 0.965149C78.5626 0.965149 78.7559 1.01182 78.9826 1.10515C79.2626 1.18515 79.5026 1.25182 79.7026 1.30515C79.9159 1.34515 80.2026 1.36515 80.5626 1.36515H87.6026C87.8826 1.36515 88.0626 1.45848 88.1426 1.64515C88.1692 1.69848 88.1826 1.77848 88.1826 1.88515C88.1826 2.04515 88.1359 2.19182 88.0426 2.32515L80.5626 12.9651C80.3359 13.2985 80.2226 13.5451 80.2226 13.7051C80.2226 13.8785 80.3626 13.9651 80.6426 13.9651H84.6026C84.8959 13.9651 85.1426 13.8918 85.3426 13.7451C85.5426 13.5851 85.7292 13.3318 85.9026 12.9852C86.0892 12.6252 86.3292 12.0785 86.6226 11.3451C86.7426 11.0918 86.8692 10.9185 87.0026 10.8251C87.1359 10.7185 87.3026 10.6651 87.5026 10.6651C87.6759 10.6651 87.8226 10.7385 87.9426 10.8851C88.0759 11.0185 88.1426 11.2585 88.1426 11.6051C88.1426 12.1251 87.9892 12.7985 87.6826 13.6251C87.4292 14.3051 87.2359 14.7852 87.1026 15.0652C86.9826 15.3452 86.8759 15.5318 86.7826 15.6251C86.7026 15.7185 86.5959 15.7651 86.4626 15.7651Z" fill="#E5E6E6"/>
<path d="M69.9027 15.3652C69.5027 15.3652 69.2227 15.3252 69.0627 15.2452C68.9027 15.1518 68.8227 14.9852 68.8227 14.7452C68.8227 14.4652 69.0027 14.2185 69.3627 14.0052C69.8161 13.7652 70.1027 13.5252 70.2227 13.2852C70.3561 13.0452 70.4227 12.6452 70.4227 12.0852V4.64517C70.4227 4.08517 70.3561 3.68517 70.2227 3.44517C70.0894 3.20517 69.7961 2.96517 69.3427 2.72517C68.9827 2.51184 68.8027 2.26517 68.8027 1.98517C68.8027 1.74517 68.8827 1.58517 69.0427 1.50517C69.2027 1.41184 69.4827 1.36517 69.8827 1.36517H71.8227H72.1227H74.0627C74.4627 1.36517 74.7361 1.41184 74.8827 1.50517C75.0427 1.58517 75.1227 1.74517 75.1227 1.98517C75.1227 2.26517 74.9427 2.51184 74.5827 2.72517C74.1294 2.96517 73.8361 3.20517 73.7027 3.44517C73.5827 3.68517 73.5227 4.08517 73.5227 4.64517V12.0852C73.5227 12.6452 73.5894 13.0452 73.7227 13.2852C73.8561 13.5252 74.1494 13.7652 74.6027 14.0052C74.9627 14.2185 75.1427 14.4652 75.1427 14.7452C75.1427 14.9852 75.0627 15.1518 74.9027 15.2452C74.7427 15.3252 74.4627 15.3652 74.0627 15.3652H72.1227H71.8227H69.9027Z" fill="#E5E6E6"/>
<path d="M59.1872 15.3652C58.6672 15.3652 58.3006 15.3252 58.0872 15.2452C57.8872 15.1518 57.7872 14.9852 57.7872 14.7452C57.7872 14.4652 58.0206 14.2185 58.4872 14.0052C58.9006 13.8452 59.2006 13.6918 59.3872 13.5452C59.5872 13.3852 59.7206 13.1985 59.7872 12.9852C59.8539 12.7718 59.8872 12.4718 59.8872 12.0852V3.62516C59.8872 3.29183 59.8406 3.06516 59.7472 2.94516C59.6672 2.81183 59.5006 2.74516 59.2472 2.74516H58.4272C58.1606 2.74516 57.9406 2.81849 57.7672 2.96516C57.6072 3.09849 57.4606 3.31849 57.3272 3.62516C57.1939 3.91849 57.0139 4.39849 56.7872 5.06516C56.5872 5.51849 56.4006 5.83849 56.2272 6.02516C56.0539 6.21183 55.8472 6.30516 55.6072 6.30516C55.1406 6.30516 54.9072 6.02516 54.9072 5.46516C54.9072 5.03849 55.0739 4.26516 55.4072 3.14516C55.6206 2.39849 55.8272 1.84516 56.0272 1.48516C56.2406 1.12516 56.4672 0.94516 56.7072 0.94516C56.8272 0.94516 56.9472 0.971826 57.0672 1.02516C57.1872 1.06516 57.2672 1.09183 57.3072 1.10516C57.7072 1.27849 58.1206 1.36516 58.5472 1.36516H64.2472C64.5939 1.36516 64.8672 1.34516 65.0672 1.30516C65.2672 1.25183 65.4606 1.17849 65.6472 1.08516C65.8606 0.991826 66.0406 0.94516 66.1872 0.94516C66.4139 0.94516 66.6139 1.09849 66.7872 1.40516C66.9739 1.69849 67.2006 2.27849 67.4672 3.14516C67.6539 3.77183 67.7939 4.27183 67.8872 4.64516C67.9806 5.00516 68.0272 5.31183 68.0272 5.56516C68.0272 6.05849 67.8006 6.30516 67.3472 6.30516C67.1072 6.30516 66.8939 6.21183 66.7072 6.02516C66.5339 5.83849 66.3472 5.51849 66.1472 5.06516C65.9072 4.38516 65.7206 3.89849 65.5872 3.60516C65.4539 3.31183 65.3072 3.09849 65.1472 2.96516C64.9872 2.81849 64.7806 2.74516 64.5272 2.74516H63.6872C63.4339 2.74516 63.2606 2.81183 63.1672 2.94516C63.0739 3.06516 63.0272 3.29183 63.0272 3.62516V12.0452C63.0272 12.4585 63.0606 12.7718 63.1272 12.9852C63.1939 13.1985 63.3206 13.3852 63.5072 13.5452C63.7072 13.6918 64.0139 13.8452 64.4272 14.0052C64.6672 14.1385 64.8406 14.2585 64.9472 14.3652C65.0672 14.4585 65.1272 14.5852 65.1272 14.7452C65.1272 14.9585 65.0406 15.1185 64.8672 15.2252C64.6939 15.3318 64.3672 15.3852 63.8872 15.3852L59.1872 15.3652Z" fill="#E5E6E6"/>
<path d="M48.8676 15.3652C48.4676 15.3652 48.1876 15.3252 48.0276 15.2452C47.8676 15.1518 47.7876 14.9852 47.7876 14.7452C47.7876 14.4652 47.9676 14.2185 48.3276 14.0052C48.7809 13.7652 49.0676 13.5252 49.1876 13.2852C49.3209 13.0452 49.3876 12.6452 49.3876 12.0852V4.64517C49.3876 4.08517 49.3209 3.68517 49.1876 3.44517C49.0542 3.20517 48.7609 2.96517 48.3076 2.72517C47.9476 2.51184 47.7676 2.26517 47.7676 1.98517C47.7676 1.74517 47.8476 1.58517 48.0076 1.50517C48.1676 1.41184 48.4476 1.36517 48.8476 1.36517H50.7876H51.0876H53.0276C53.4276 1.36517 53.7009 1.41184 53.8476 1.50517C54.0076 1.58517 54.0876 1.74517 54.0876 1.98517C54.0876 2.26517 53.9076 2.51184 53.5476 2.72517C53.0942 2.96517 52.8009 3.20517 52.6676 3.44517C52.5476 3.68517 52.4876 4.08517 52.4876 4.64517V12.0852C52.4876 12.6452 52.5542 13.0452 52.6876 13.2852C52.8209 13.5252 53.1142 13.7652 53.5676 14.0052C53.9276 14.2185 54.1076 14.4652 54.1076 14.7452C54.1076 14.9852 54.0276 15.1518 53.8676 15.2452C53.7076 15.3252 53.4276 15.3652 53.0276 15.3652H51.0876H50.7876H48.8676Z" fill="#E5E6E6"/>
<path d="M29.8227 15.3652C29.5294 15.3652 29.2827 15.3118 29.0827 15.2052C28.8961 15.0852 28.8027 14.9185 28.8027 14.7052C28.8027 14.5452 28.8627 14.4118 28.9827 14.3052C29.1027 14.1985 29.2427 14.1185 29.4027 14.0652C29.8294 13.9718 30.1161 13.8052 30.2627 13.5652C30.4227 13.3118 30.5361 12.8785 30.6027 12.2652L31.5827 3.94516C31.5961 3.85183 31.6027 3.72516 31.6027 3.56516C31.6027 3.24516 31.5294 3.01183 31.3827 2.86517C31.2361 2.7185 30.9827 2.59183 30.6227 2.48516C30.4894 2.43183 30.3827 2.35183 30.3027 2.24516C30.2227 2.1385 30.1827 2.0185 30.1827 1.88516C30.1827 1.6585 30.2561 1.51183 30.4027 1.44516C30.5627 1.36516 30.7761 1.32516 31.0427 1.32516L32.1427 1.34516C32.3694 1.3585 32.6694 1.36516 33.0427 1.36516C33.4161 1.36516 33.6827 1.40516 33.8427 1.48517C34.0161 1.55183 34.1361 1.66516 34.2027 1.82516C34.2561 1.9585 34.3027 2.1585 34.3427 2.42516C34.4361 2.78516 34.5227 3.04516 34.6027 3.20516L37.6027 10.4452C37.6827 10.6052 37.7694 10.6852 37.8627 10.6852C37.9694 10.6852 38.0427 10.6052 38.0827 10.4452L40.9227 3.18516C41.0294 2.94516 41.0894 2.72516 41.1027 2.52517C41.1161 2.40517 41.1227 2.29183 41.1227 2.18516C41.1361 2.06516 41.1561 1.95183 41.1827 1.84516C41.2094 1.68516 41.2961 1.56516 41.4427 1.48517C41.5894 1.40516 41.8361 1.36516 42.1827 1.36516C42.5827 1.36516 42.8827 1.36516 43.0827 1.36516C43.2827 1.35183 43.4361 1.34516 43.5427 1.34516C43.6894 1.33183 43.9627 1.32516 44.3627 1.32516C45.0694 1.32516 45.4227 1.5385 45.4227 1.96516C45.4227 2.0985 45.3694 2.22516 45.2627 2.34516C45.1561 2.46516 45.0294 2.55183 44.8827 2.60517C44.5361 2.68516 44.3027 2.79183 44.1827 2.92516C44.0627 3.04516 44.0027 3.2585 44.0027 3.56516C44.0027 3.7385 44.0094 3.88516 44.0227 4.00516L44.7827 12.4452C44.8361 12.9918 44.9361 13.3785 45.0827 13.6052C45.2427 13.8185 45.5361 13.9718 45.9627 14.0652C46.1227 14.1052 46.2694 14.1785 46.4027 14.2852C46.5361 14.3785 46.6027 14.5118 46.6027 14.6852C46.6027 14.9252 46.5161 15.0985 46.3427 15.2052C46.1694 15.3118 45.9894 15.3652 45.8027 15.3652H41.2227C40.5027 15.3652 40.1427 15.1452 40.1427 14.7052C40.1427 14.5585 40.1961 14.4318 40.3027 14.3252C40.4227 14.2052 40.5561 14.1252 40.7027 14.0852C41.1427 13.9785 41.4294 13.8385 41.5627 13.6652C41.6961 13.4918 41.7494 13.1718 41.7227 12.7052L41.3027 6.68516C41.2894 6.6185 41.2627 6.56517 41.2227 6.52517C41.1961 6.47183 41.1627 6.44517 41.1227 6.44517C41.0561 6.44517 40.9761 6.54516 40.8827 6.74516L37.4627 14.8452C37.3161 15.1785 37.1561 15.3452 36.9827 15.3452C36.7961 15.3452 36.6294 15.1918 36.4827 14.8852L32.9227 6.74516C32.8427 6.54516 32.7627 6.44517 32.6827 6.44517C32.5627 6.44517 32.4961 6.52517 32.4827 6.68516L31.9627 12.7852L31.9427 13.0452C31.9427 13.4052 32.0361 13.6518 32.2227 13.7852C32.4094 13.9185 32.7161 14.0185 33.1427 14.0852C33.3161 14.1252 33.4494 14.2052 33.5427 14.3252C33.6361 14.4318 33.6827 14.5652 33.6827 14.7252C33.6827 14.9118 33.5961 15.0652 33.4227 15.1852C33.2627 15.3052 33.0161 15.3652 32.6827 15.3652H29.8227Z" fill="#E5E6E6"/>
<path d="M13.8698 15.3852C13.3098 15.3852 13.0298 15.1852 13.0298 14.7852C13.0298 14.6385 13.0965 14.5052 13.2298 14.3852C13.3765 14.2518 13.5498 14.1452 13.7498 14.0652C14.1631 13.9585 14.4631 13.8052 14.6498 13.6052C14.8365 13.4052 15.0231 13.0585 15.2098 12.5652L18.6898 3.50517C18.7298 3.38517 18.7498 3.26517 18.7498 3.14517C18.7498 2.98517 18.7098 2.84517 18.6298 2.72517C18.5631 2.60517 18.4631 2.5185 18.3298 2.46517C18.0365 2.34517 17.8898 2.14517 17.8898 1.86517C17.8898 1.7185 17.9498 1.58517 18.0698 1.46517C18.1898 1.33183 18.4031 1.26517 18.7098 1.26517H20.2298C20.9765 1.26517 21.5098 1.4185 21.8298 1.72517C22.1631 2.0185 22.4298 2.41183 22.6298 2.90517L23.7698 5.82517C24.6498 8.14517 25.5498 10.4652 26.4698 12.7852C26.6031 13.1452 26.7365 13.3985 26.8698 13.5452C27.0165 13.6918 27.2631 13.8185 27.6098 13.9252C27.7698 14.0052 27.8965 14.1052 27.9898 14.2252C28.0831 14.3318 28.1298 14.4852 28.1298 14.6852C28.1298 14.9652 28.0231 15.1518 27.8098 15.2452C27.6098 15.3385 27.3765 15.3785 27.1098 15.3652H23.5498C22.9231 15.3652 22.4898 15.3318 22.2498 15.2652C22.0098 15.1985 21.8898 15.0318 21.8898 14.7652C21.8898 14.6318 21.9165 14.5318 21.9698 14.4652C22.0231 14.3852 22.1098 14.3118 22.2298 14.2452C22.5231 14.1518 22.7298 14.0518 22.8498 13.9452C22.9831 13.8252 23.0498 13.6718 23.0498 13.4852C23.0498 13.3385 23.0098 13.1452 22.9298 12.9052L22.5698 11.9252C22.5031 11.7118 22.3898 11.5452 22.2298 11.4252C22.0698 11.3052 21.8898 11.2452 21.6898 11.2452H18.0098C17.7165 11.2452 17.5098 11.2785 17.3898 11.3452C17.2698 11.4118 17.1631 11.5585 17.0698 11.7852L16.7298 12.7052C16.6098 13.0385 16.5498 13.3118 16.5498 13.5252C16.5498 13.7118 16.6098 13.8585 16.7298 13.9652C16.8498 14.0718 17.0431 14.1518 17.3098 14.2052C17.7098 14.3252 17.9098 14.5252 17.9098 14.8052C17.9098 15.1918 17.5965 15.3852 16.9698 15.3852H13.8698ZM21.1898 9.84517C21.3765 9.84517 21.5231 9.80517 21.6298 9.72517C21.7498 9.63183 21.7831 9.51183 21.7298 9.36517L21.2498 8.00517C20.8098 6.7385 20.4365 5.64517 20.1298 4.72517C20.0765 4.5385 19.9965 4.44517 19.8898 4.44517C19.7965 4.44517 19.7098 4.5385 19.6298 4.72517L17.9298 9.36517C17.8631 9.5385 17.8898 9.66517 18.0098 9.74517C18.1431 9.81183 18.3165 9.84517 18.5298 9.84517H21.1898Z" fill="#E5E6E6"/>
<path d="M10.7399 15.7651C10.6466 15.7651 10.4466 15.7318 10.1399 15.6651C9.24659 15.4651 8.38659 15.3651 7.55992 15.3651H1.25992C0.979922 15.3651 0.766589 15.3185 0.619922 15.2252C0.486589 15.1185 0.419922 14.9785 0.419922 14.8052C0.419922 14.6052 0.539922 14.3051 0.779922 13.9051L7.85992 3.40515C7.96659 3.23182 8.01992 3.09848 8.01992 3.00515C8.01992 2.83182 7.87992 2.74515 7.59992 2.74515H4.51992C4.18659 2.74515 3.91992 2.81182 3.71992 2.94515C3.51992 3.07848 3.32659 3.32515 3.13992 3.68515C2.96659 4.03182 2.74659 4.58515 2.47992 5.34515C2.37326 5.59848 2.25326 5.77848 2.11992 5.88515C1.98659 5.99182 1.81326 6.04515 1.59992 6.04515C1.15992 6.04515 0.939922 5.75182 0.939922 5.16515C0.939922 4.67182 1.08659 4.00515 1.37992 3.16515C1.61992 2.45848 1.79992 1.96515 1.91992 1.68515C2.03992 1.40515 2.14659 1.21848 2.23992 1.12515C2.34659 1.01848 2.49326 0.965149 2.67992 0.965149C2.83992 0.965149 3.03326 1.01182 3.25992 1.10515C3.53992 1.18515 3.77992 1.25182 3.97992 1.30515C4.19326 1.34515 4.47992 1.36515 4.83992 1.36515H11.8799C12.1599 1.36515 12.3399 1.45848 12.4199 1.64515C12.4466 1.69848 12.4599 1.77848 12.4599 1.88515C12.4599 2.04515 12.4133 2.19182 12.3199 2.32515L4.83992 12.9651C4.61326 13.2985 4.49992 13.5451 4.49992 13.7051C4.49992 13.8785 4.63992 13.9651 4.91992 13.9651H8.87992C9.17326 13.9651 9.41992 13.8918 9.61992 13.7451C9.81992 13.5851 10.0066 13.3318 10.1799 12.9852C10.3666 12.6252 10.6066 12.0785 10.8999 11.3451C11.0199 11.0918 11.1466 10.9185 11.2799 10.8251C11.4133 10.7185 11.5799 10.6651 11.7799 10.6651C11.9533 10.6651 12.0999 10.7385 12.2199 10.8851C12.3533 11.0185 12.4199 11.2585 12.4199 11.6051C12.4199 12.1251 12.2666 12.7985 11.9599 13.6251C11.7066 14.3051 11.5133 14.7852 11.3799 15.0652C11.2599 15.3452 11.1533 15.5318 11.0599 15.6251C10.9799 15.7185 10.8733 15.7651 10.7399 15.7651Z" fill="#E5E6E6"/>
</svg>
